<?xml version="1.0" ?><svg height="32px" style="enable-background:new 0 0 32 32;" version="1.1" viewBox="0 0 32 32" width="32px" xml:space="preserve" xmlns="http://www.w3.org/2000/svg" xmlns:xlink="http://www.w3.org/1999/xlink"><style type="text/css">
	.st0{fill:none;stroke:#434345;stroke-width:2;stroke-linecap:round;stroke-linejoin:round;stroke-miterlimit:10;}
	.st1{fill:#434345;}
</style><g id="Layer_2"/><g id="Layer_1"><g><path class="st0" d="M15.21,5.3C16.11,5.1,17.04,5,18,5c7.18,0,13,5.82,13,13s-5.82,13-13,13S5,25.18,5,18    c0-0.77,0.07-1.52,0.2-2.25"/><path class="st0" d="M15.74,6.9C16.4,5.7,17.17,5,18,5c2.39,0,4.33,5.82,4.33,13S20.39,31,18,31s-4.33-5.82-4.33-13    c0-1.58,0.09-3.09,0.26-4.49"/><line class="st0" x1="7.45" x2="5" y1="18" y2="18"/><polyline class="st0" points="9.45,18 13.67,18 22.33,18 31,18   "/><path class="st0" d="M15.73999,6.89996c0.01001-0.00995,0.01001-0.00995,0-0.00995    C15.63,6.32996,15.45001,5.79999,15.21002,5.29999c-0.31-0.67999-0.73004-1.31-1.23004-1.85999l-0.51001-0.51001    C12.14001,1.72998,10.38,1,8.45001,1S4.76001,1.72998,3.44,2.92999L3.31,3.06L3.04999,3.31l-0.12,0.13    C1.72998,4.76996,1,6.52997,1,8.45996c0,2,0.78003,3.80005,2.04999,5.14001L8.45001,19l1-1l4.14996-4.14001l0.25-0.26001    c0.03003-0.02997,0.06-0.06,0.08002-0.08997c1.22998-1.33002,1.97998-3.09003,1.97998-5.05005    C15.90997,7.91998,15.84998,7.39996,15.73999,6.89996z M8.45001,11.56c-0.54004,0-1.04999-0.14001-1.5-0.39001    C6,10.64996,5.34998,9.63,5.34998,8.45996c0-1.71997,1.39001-3.10999,3.10004-3.10999c1.16998,0,2.19,0.64001,2.70996,1.60004    c0.26001,0.44,0.40002,0.95996,0.40002,1.50995C11.56,10.16998,10.16998,11.56,8.45001,11.56z"/></g></g></svg>